<svg xmlns="http://www.w3.org/2000/svg" width="512" height="512" class="prefix__fl-svgdocument" overflow="visible" viewBox="50 50 200 400"><g data-uid="o_elhnn3f2b_7"><path d="M147.946 347.805c-.157 0-.319-.014-.478-.046l-79.023-14.654a2.617 2.617 0 01-2.096-3.05 2.617 2.617 0 013.05-2.094l75.661 14.029-4.142-50.768-43.06-120.826a2.615 2.615 0 011.587-3.344 2.618 2.618 0 013.343 1.587l43.176 121.154c.075.214.125.434.14.666l4.45 54.515a2.624 2.624 0 01-2.608 2.83z" fill="#ffab4a" data-uid="o_elhnn3f2b_8"/><path d="M147.437 348.269c-.416 0-.835-.098-1.229-.307a2.622 2.622 0 01-1.078-3.544l76.931-144.27a2.62 2.62 0 013.541-1.079 2.623 2.623 0 011.08 3.542L149.75 346.883a2.616 2.616 0 01-2.313 1.386z" fill="#ff6b4a" data-uid="o_elhnn3f2b_9"/><path d="M142.988 293.95a2.81 2.81 0 01-.53-.052h-.005a3.605 3.605 0 01-.107-.028c-.007 0-.009 0-.013-.004a2.595 2.595 0 01-1.227-.71L63.285 215.33 53.19 270.44a2.619 2.619 0 01-3.045 2.103 2.62 2.62 0 01-2.103-3.045l10.99-60.015a2.612 2.612 0 014.422-1.38l78.045 78.045 22.522-97.08-64.851-16.35c-1.197-.3-2.021-1.397-1.976-2.63s.947-2.27 2.16-2.483l74.314-13.084a2.616 2.616 0 013.002 3.168l-6.395 27.558 54.726 13.797a2.62 2.62 0 011.864 1.78c.264.878.05 1.834-.567 2.514l-81.34 89.713c-.148.173-.32.326-.51.449 0 .004-.002.004-.002.004h-.005l-.002.005h-.002a1.51 1.51 0 01-.112.07h-.002c-.002 0-.002 0-.005.005h-.004a2.586 2.586 0 01-1.327.366zm26.109-103.602l-21.289 91.77 71.688-79.064-50.399-12.706zm-56.776-19.712l52.884 13.332 5.476-23.607-58.36 10.275z" fill="#ff4a4a" data-uid="o_elhnn3f2b_10"/><path d="M68.507 333.717c-.33 0-.653-.062-.953-.178a2.74 2.74 0 01-.649-.368 2.666 2.666 0 01-.803-1.04 2.637 2.637 0 01-.114-.326L48.202 270.6a2.616 2.616 0 01.997-2.863l116.532-82.81a2.618 2.618 0 013.678 3.612L76.725 323.742l65.124-34.815c.378-.2.803-.307 1.233-.307h106.07l-26.97-85.66-49.698-44.001a2.615 2.615 0 01-.223-3.694 2.615 2.615 0 013.692-.225l50.24 44.482c.355.316.619.721.762 1.174l28.26 89.754a2.61 2.61 0 01-.387 2.328 2.61 2.61 0 01-2.11 1.072H143.74L69.79 333.382c-.116.062-.237.12-.362.169-.157.057-.32.102-.482.13a2.384 2.384 0 01-.44.036zm-14.761-62.792l15.73 54.132 87.294-127.342-103.024 73.21z" fill="#ff954a" data-uid="o_elhnn3f2b_11"/><path fill="#ff4a4a" data-type="circle" data-cx="55.538" data-cy="19.677" data-r="4.901" d="M155.08 187.158a11.154 11.154 0 1022.308 0 11.154 11.154 0 10-22.308 0" data-uid="o_elhnn3f2b_12"/><path fill="#ff6b4a" data-type="circle" data-cx="23.472" data-cy="42.596" data-r="4.9" d="M82.252 239.5a11.152 11.152 0 1022.304 0 11.152 11.152 0 10-22.304 0" data-uid="o_elhnn3f2b_13"/><path fill="#ff954a" data-type="circle" data-cx="45.736" data-cy="65.145" data-r="4.901" d="M132.322 291.847a11.154 11.154 0 1022.308 0 11.154 11.154 0 10-22.308 0" data-uid="o_elhnn3f2b_14"/><path fill="#ffab4a" data-type="circle" data-cx="12.968" data-cy="82.662" data-r="4.901" d="M57.218 330.536a11.154 11.154 0 1022.309 0 11.154 11.154 0 10-22.309 0" data-uid="o_elhnn3f2b_15"/><path fill="#ffab4a" data-type="circle" data-cx="81.493" data-cy="25.552" data-r="4.901" d="M213.63400000000001 200.813a11.154 11.154 0 1022.309 0 11.154 11.154 0 10-22.309 0" data-uid="o_elhnn3f2b_16"/><path fill="#ff6b4a" data-type="circle" data-cx="47.69" data-cy="89.1" data-r="4.9" d="M136.87300000000002 346.465a11.152 11.152 0 1022.304 0 11.152 11.152 0 10-22.304 0" data-uid="o_elhnn3f2b_17"/></g></svg>