<svg xmlns="http://www.w3.org/2000/svg" width="512" height="512" style="overflow: visible;" viewBox="0 0 512 512" data-svgdocument="" id="_BM0fv_aJ_ZZWWYek1ZRVa" class="fl-svgdocument" x="0" y="0" xmlns:xlink="http://www.w3.org/1999/xlink"><defs id="_FEUZazGX9lR-u9GOcn4pe" transform="matrix(0.6700015068054199, 0, 0, 0.6700015068054199, -62.16123962402344, 131.2875518798828)" data-uid="o_elhnn3f2b_6"></defs><g id="_CZsm_wCQ7c3IgxeylXQiM" transform="matrix(0.9532119631767273, 0, 0, 0.9532119631767273, 16.127704620361328, 20.280134201049805)" data-uid="o_elhnn3f2b_7"><path id="_nYrdhAiyt-4ci4TBfdLLz" d="M47.69,90.25c-0.069,0-0.14-0.006-0.21-0.02l-34.722-6.439c-0.624-0.115-1.036-0.715-0.921-1.34   c0.116-0.623,0.717-1.037,1.34-0.92l33.245,6.164l-1.82-22.307l-18.92-53.09c-0.214-0.598,0.099-1.256,0.697-1.469   c0.598-0.213,1.255,0.099,1.469,0.697L46.819,64.76c0.033,0.094,0.055,0.191,0.062,0.293l1.955,23.953   c0.028,0.357-0.11,0.707-0.376,0.947C48.248,90.145,47.973,90.25,47.69,90.25z" fill="#ffab4a" transform="matrix(2.387587785720825, 0, 0, 2.387587785720825, 24.424518585205078, 128.12120056152344)" data-uid="o_elhnn3f2b_8"></path><path id="_7-TNYczNWwjvDZVmHMsj0" d="M47.689,90.25c-0.183,0-0.367-0.043-0.54-0.135c-0.561-0.301-0.772-0.996-0.474-1.557l33.803-63.391   c0.299-0.56,0.995-0.772,1.556-0.474c0.56,0.299,0.771,0.996,0.474,1.556L48.705,89.641C48.498,90.029,48.101,90.25,47.689,90.25z" fill="#ff6b4a" transform="matrix(2.387587785720825, 0, 0, 2.387587785720825, 23.89333724975586, 128.6082305908203)" data-uid="o_elhnn3f2b_9"></path><path id="_HmtDiMQRhI5IEVQ9RVaWU" d="M45.737,66.295c-0.077,0-0.155-0.008-0.233-0.023l0,0c-0.001,0-0.002,0-0.002,0c-0.017-0.004-0.032-0.008-0.047-0.012l0,0   c-0.003,0-0.004,0-0.006-0.002l0,0c-0.213-0.055-0.396-0.164-0.539-0.312L10.716,31.75L6.281,55.965   c-0.114,0.625-0.714,1.037-1.338,0.924c-0.625-0.115-1.038-0.715-0.924-1.338l4.829-26.37c0.076-0.42,0.381-0.763,0.788-0.891   c0.408-0.127,0.854-0.018,1.155,0.285l34.292,34.292l9.896-42.656l-28.495-7.184c-0.526-0.132-0.888-0.614-0.868-1.156   s0.416-0.997,0.949-1.091l32.653-5.749c0.38-0.067,0.769,0.062,1.033,0.341c0.266,0.28,0.373,0.675,0.286,1.051l-2.81,12.109   l24.046,6.062c0.391,0.099,0.702,0.396,0.819,0.782c0.116,0.386,0.022,0.806-0.249,1.105L46.603,65.9   c-0.065,0.076-0.141,0.143-0.224,0.197c0,0.002-0.001,0.002-0.001,0.002c-0.001,0-0.001,0-0.002,0l-0.001,0.002   c-0.001,0-0.001,0-0.001,0c-0.017,0.012-0.032,0.021-0.049,0.031c-0.001,0-0.001,0-0.001,0c-0.001,0-0.001,0-0.002,0.002h-0.001   c-0.001,0-0.001,0-0.001,0C46.146,66.238,45.945,66.295,45.737,66.295z M57.209,20.773l-9.354,40.323l31.499-34.74L57.209,20.773z    M32.262,12.112l23.237,5.858l2.406-10.373L32.262,12.112z" fill="#ff4a4a" transform="matrix(2.387587785720825, 0, 0, 2.387587785720825, 23.886180877685547, 128.81785583496094)" data-uid="o_elhnn3f2b_10"></path><path id="_-g4FECiGjDeGPmN7mAvTs" d="M12.968,83.811c-0.145,0-0.287-0.027-0.419-0.078c-0.101-0.041-0.197-0.094-0.285-0.162   c-0.15-0.117-0.273-0.273-0.353-0.457c-0.02-0.047-0.037-0.096-0.05-0.143L4.046,56.078c-0.136-0.471,0.039-0.975,0.438-1.258   l51.203-36.386c0.455-0.323,1.075-0.273,1.473,0.117s0.457,1.01,0.143,1.47L16.579,79.428l28.615-15.297   c0.166-0.088,0.353-0.135,0.542-0.135h46.606L80.492,26.358L58.655,7.024c-0.475-0.421-0.52-1.147-0.098-1.623   c0.42-0.475,1.147-0.52,1.622-0.099l22.075,19.545c0.156,0.139,0.272,0.317,0.335,0.516l12.417,39.437   c0.109,0.348,0.047,0.729-0.17,1.023c-0.217,0.297-0.561,0.471-0.927,0.471H46.024L13.532,83.664   c-0.051,0.027-0.104,0.053-0.159,0.074c-0.069,0.025-0.141,0.045-0.212,0.057C13.097,83.807,13.032,83.811,12.968,83.811z    M6.482,56.221l6.912,23.785l38.356-55.953L6.482,56.221z" fill="#ff954a" transform="matrix(2.387587785720825, 0, 0, 2.387587785720825, 23.98843765258789, 128.7154083251953)" data-uid="o_elhnn3f2b_11"></path><path id="_lH_QpX3A2RgCO2VtGtMus" fill="#ff4a4a" transform="matrix(2.387587785720825, 0, 0, 2.387587785720825, 24.87227439880371, 128.0879364013672)" data-type="circle" data-cx="55.538" data-cy="19.677" data-r="4.901" d="M55.538,19.677m-4.901,0a4.901,4.901 0 1, 0 9.802,0a4.901,4.901 0 1, 0 -9.802,0" data-uid="o_elhnn3f2b_12"></path><path id="_zwePDHih4GevDIq5w3Req" fill="#ff6b4a" transform="matrix(2.387587785720825, 0, 0, 2.387587785720825, 25.028173446655273, 128.2785186767578)" data-type="circle" data-cx="23.472" data-cy="42.596" data-r="4.9" d="M23.472,42.596m-4.9,0a4.9,4.9 0 1, 0 9.8,0a4.9,4.9 0 1, 0 -9.8,0" data-uid="o_elhnn3f2b_13"></path><path id="__bp6clTczT-DT51RP1Js7" fill="#ff954a" transform="matrix(2.387587785720825, 0, 0, 2.387587785720825, 24.40011978149414, 129.35693359375)" data-type="circle" data-cx="45.736" data-cy="65.145" data-r="4.901" d="M45.736,65.145m-4.901,0a4.901,4.901 0 1, 0 9.802,0a4.901,4.901 0 1, 0 -9.802,0" data-uid="o_elhnn3f2b_14"></path><path id="_4I73MY35XrjAje_94NhqE" fill="#ffab4a" transform="matrix(2.387587785720825, 0, 0, 2.387587785720825, 23.846981048583984, 128.12213134765625)" data-type="circle" data-cx="12.968" data-cy="82.662" data-r="4.901" d="M12.968,82.662m-4.901,0a4.901,4.901 0 1, 0 9.802,0a4.901,4.901 0 1, 0 -9.802,0" data-uid="o_elhnn3f2b_15"></path><path id="_Em4M5ckx9HQ3l5_UxbT-2" fill="#ffab4a" transform="matrix(2.387587785720825, 0, 0, 2.387587785720825, 24.331098556518555, 128.38638305664062)" data-type="circle" data-cx="81.493" data-cy="25.552" data-r="4.901" d="M81.493,25.552m-4.901,0a4.901,4.901 0 1, 0 9.802,0a4.901,4.901 0 1, 0 -9.802,0" data-uid="o_elhnn3f2b_16"></path><path id="_MuuO6Z994e7NcdK4w4UM3" fill="#ff6b4a" transform="matrix(2.387587785720825, 0, 0, 2.387587785720825, 24.50743865966797, 129.4617462158203)" data-type="circle" data-cx="47.69" data-cy="89.1" data-r="4.9" d="M47.69,89.1m-4.9,0a4.9,4.9 0 1, 0 9.8,0a4.9,4.9 0 1, 0 -9.8,0" data-uid="o_elhnn3f2b_17"></path></g><path id="_Z0YrQ9icz1cHOvm_GQPbH" fill="#000000" transform="matrix(0.6146143674850464, 0, 0, 0.6146143674850464, 155.21774291992188, 296.10198974609375)" text="expoll" text-anchor="start" font-size="100" letter-spacing="0" side="left" offset="0" dx="0" dy="0" space="preserve" href="" font-family="Bungee" font-scale="contain" x="0" y="0" data-fl-textpath="" data-uid="o_elhnn3f2b_18" d="M 56.9 0L 56.9 0L 10.5 0Q 8.6 0  7.75-0.85Q 6.9-1.7  6.9-3.6L 6.9-3.6L 6.9-68.4Q 6.9-70.3  7.75-71.15Q 8.6-72  10.5-72L 10.5-72L 56.9-72Q 58.8-72  59.65-71.15Q 60.5-70.3  60.5-68.4L 60.5-68.4L 60.5-56.7Q 60.5-54.8  59.65-53.95Q 58.8-53.1  56.9-53.1L 56.9-53.1L 29.3-53.1L 29.3-45.4L 48.8-45.4Q 50.7-45.4  51.55-44.55Q 52.4-43.7  52.4-41.8L 52.4-41.8L 52.4-31.1Q 52.4-29.2  51.55-28.35Q 50.7-27.5  48.8-27.5L 48.8-27.5L 29.3-27.5L 29.3-18.9L 56.9-18.9Q 58.8-18.9  59.65-18.05Q 60.5-17.2  60.5-15.3L 60.5-15.3L 60.5-3.6Q 60.5-1.7  59.65-0.85Q 58.8 0  56.9 0ZM 93.80000000000001-13.5L 93.80000000000001-3.6Q 93.80000000000001-1.7  92.95-0.85Q 92.10000000000001 0  90.2 0L 90.2 0L 75 0Q 73.10000000000001 0  72.25-0.85Q 71.4-1.7  71.4-3.6L 71.4-3.6L 71.4-14.3Q 71.4-18.9  72.2-21.2Q 73-23.5  75.2-26.6L 75.2-26.6L 83.30000000000001-37.5L 75.2-48.4Q 72.9-51.5  72.15-53.8Q 71.4-56.1  71.4-60.7L 71.4-60.7L 71.4-68.4Q 71.4-70.3  72.25-71.15Q 73.10000000000001-72  75-72L 75-72L 90.4-72Q 92.30000000000001-72  93.15-71.15Q 94-70.3  94-68.4L 94-68.4L 94-61.5Q 94-60.5  94.10000000000001-59.4Q 94.2-58.3  94.9-57.3L 94.9-57.3L 99.30000000000001-51Q 99.80000000000001-50.2  100.35000000000001-49.75Q 100.9-49.3  101.7-49.3L 101.7-49.3L 102.9-49.3Q 103.7-49.3  104.2-49.75Q 104.7-50.2  105.30000000000001-51L 105.30000000000001-51L 109.80000000000001-57.3Q 110.5-58.3  110.60000000000001-59.4Q 110.7-60.5  110.7-61.5L 110.7-61.5L 110.7-68.4Q 110.7-70.3  111.55000000000001-71.15Q 112.4-72  114.30000000000001-72L 114.30000000000001-72L 129.5-72Q 131.4-72  132.25-71.15Q 133.10000000000002-70.3  133.10000000000002-68.4L 133.10000000000002-68.4L 133.10000000000002-60.7Q 133.10000000000002-56.1  132.3-53.8Q 131.5-51.5  129.3-48.4L 129.3-48.4L 121.2-37.4L 129.3-26.6Q 131.60000000000002-23.5  132.35000000000002-21.2Q 133.10000000000002-18.9  133.10000000000002-14.3L 133.10000000000002-14.3L 133.10000000000002-3.6Q 133.10000000000002-1.7  132.25-0.85Q 131.4 0  129.5 0L 129.5 0L 114.30000000000001 0Q 112.4 0  111.55000000000001-0.85Q 110.7-1.7  110.7-3.6L 110.7-3.6L 110.7-13.5Q 110.7-14.5  110.60000000000001-15.6Q 110.5-16.7  109.80000000000001-17.7L 109.80000000000001-17.7L 105.4-24Q 104.80000000000001-24.9  104.30000000000001-25.3Q 103.80000000000001-25.7  103-25.7L 103-25.7L 101.60000000000001-25.7Q 100.80000000000001-25.7  100.30000000000001-25.3Q 99.80000000000001-24.9  99.2-24L 99.2-24L 94.7-17.7Q 94-16.7  93.9-15.6Q 93.80000000000001-14.5  93.80000000000001-13.5L 93.80000000000001-13.5ZM 165.10000000000002 0L 165.10000000000002 0L 149.60000000000002 0Q 147.70000000000002 0  146.85000000000002-0.85Q 146.00000000000003-1.7  146.00000000000003-3.6L 146.00000000000003-3.6L 146.00000000000003-68.4Q 146.00000000000003-70.3  146.85000000000002-71.15Q 147.70000000000002-72  149.60000000000002-72L 149.60000000000002-72L 180.20000000000002-72Q 193.8-72  198.8-66.6Q 203.8-61.2  203.8-52.5L 203.8-52.5L 203.8-39.7Q 203.8-31  198.8-25.6Q 193.8-20.2  180.20000000000002-20.2L 180.20000000000002-20.2L 168.70000000000002-20.2L 168.70000000000002-3.6Q 168.70000000000002-1.7  167.85000000000002-0.85Q 167.00000000000003 0  165.10000000000002 0ZM 177.50000000000003-53.3L 168.50000000000003-53.3L 168.50000000000003-38.2L 177.50000000000003-38.2Q 180.40000000000003-38.2  181.3-39.7Q 182.20000000000002-41.2  182.20000000000002-43.1L 182.20000000000002-43.1L 182.20000000000002-48.4Q 182.20000000000002-50.3  181.3-51.8Q 180.40000000000003-53.3  177.50000000000003-53.3L 177.50000000000003-53.3ZM 275.20000000000005-53L 275.20000000000005-18.9Q 275.20000000000005-14.3  273.85-10.55Q 272.5-6.8  269.05-4.15Q 265.6-1.5  259.55 0Q 253.5 1.5  244.20000000000002 1.5L 244.20000000000002 1.5Q 234.9 1.5  228.8 0Q 222.70000000000002-1.5  219.25-4.15Q 215.8-6.8  214.45000000000002-10.55Q 213.10000000000002-14.3  213.10000000000002-18.9L 213.10000000000002-18.9L 213.10000000000002-53Q 213.10000000000002-57.6  214.45000000000002-61.35Q 215.8-65.1  219.25-67.8Q 222.70000000000002-70.5  228.8-72Q 234.9-73.5  244.20000000000002-73.5L 244.20000000000002-73.5Q 253.5-73.5  259.55-72Q 265.6-70.5  269.05-67.8Q 272.5-65.1  273.85-61.35Q 275.20000000000005-57.6  275.20000000000005-53L 275.20000000000005-53ZM 235.8-49.4L 235.8-22.5Q 235.8-20.5  237.3-19.15Q 238.8-17.8  244.20000000000002-17.8L 244.20000000000002-17.8Q 249.60000000000002-17.8  251.10000000000002-19.15Q 252.60000000000002-20.5  252.60000000000002-22.5L 252.60000000000002-22.5L 252.60000000000002-49.4Q 252.60000000000002-51.3  251.10000000000002-52.65Q 249.60000000000002-54  244.20000000000002-54L 244.20000000000002-54Q 238.8-54  237.3-52.65Q 235.8-51.3  235.8-49.4L 235.8-49.4ZM 342.4 0L 342.4 0L 291.5 0Q 289.6 0  288.75-0.85Q 287.9-1.7  287.9-3.6L 287.9-3.6L 287.9-68.4Q 287.9-70.3  288.75-71.15Q 289.6-72  291.5-72L 291.5-72L 307-72Q 308.9-72  309.75-71.15Q 310.6-70.3  310.6-68.4L 310.6-68.4L 310.6-18.9L 324.3-18.9L 324.3-35.1Q 324.3-37  325.15-37.85Q 326-38.7  327.9-38.7L 327.9-38.7L 342.4-38.7Q 344.3-38.7  345.15-37.85Q 346-37  346-35.1L 346-35.1L 346-3.6Q 346-1.7  345.15-0.85Q 344.3 0  342.4 0ZM 411.9 0L 411.9 0L 361 0Q 359.1 0  358.25-0.85Q 357.4-1.7  357.4-3.6L 357.4-3.6L 357.4-68.4Q 357.4-70.3  358.25-71.15Q 359.1-72  361-72L 361-72L 376.5-72Q 378.4-72  379.25-71.15Q 380.1-70.3  380.1-68.4L 380.1-68.4L 380.1-18.9L 393.8-18.9L 393.8-35.1Q 393.8-37  394.65-37.85Q 395.5-38.7  397.4-38.7L 397.4-38.7L 411.9-38.7Q 413.8-38.7  414.65-37.85Q 415.5-37  415.5-35.1L 415.5-35.1L 415.5-3.6Q 415.5-1.7  414.65-0.85Q 413.8 0  411.9 0Z"></path></svg>