<svg xmlns="http://www.w3.org/2000/svg" width="512" height="512" class="prefix__fl-svgdocument" overflow="visible" viewBox="300 400"><g data-uid="o_elhnn3f2b_7"><path d="M147.946 347.805c-.157 0-.319-.014-.478-.046l-79.023-14.654a2.617 2.617 0 01-2.096-3.05 2.617 2.617 0 013.05-2.094l75.661 14.029-4.142-50.768-43.06-120.826a2.615 2.615 0 011.587-3.344 2.618 2.618 0 013.343 1.587l43.176 121.154c.075.214.125.434.14.666l4.45 54.515a2.624 2.624 0 01-2.608 2.83z" fill="#ffab4a" data-uid="o_elhnn3f2b_8"/><path d="M147.437 348.269c-.416 0-.835-.098-1.229-.307a2.622 2.622 0 01-1.078-3.544l76.931-144.27a2.62 2.62 0 013.541-1.079 2.623 2.623 0 011.08 3.542L149.75 346.883a2.616 2.616 0 01-2.313 1.386z" fill="#ff6b4a" data-uid="o_elhnn3f2b_9"/><path d="M142.988 293.95a2.81 2.81 0 01-.53-.052h-.005a3.605 3.605 0 01-.107-.028c-.007 0-.009 0-.013-.004a2.595 2.595 0 01-1.227-.71L63.285 215.33 53.19 270.44a2.619 2.619 0 01-3.045 2.103 2.62 2.62 0 01-2.103-3.045l10.99-60.015a2.612 2.612 0 014.422-1.38l78.045 78.045 22.522-97.08-64.851-16.35c-1.197-.3-2.021-1.397-1.976-2.63s.947-2.27 2.16-2.483l74.314-13.084a2.616 2.616 0 013.002 3.168l-6.395 27.558 54.726 13.797a2.62 2.62 0 011.864 1.78c.264.878.05 1.834-.567 2.514l-81.34 89.713c-.148.173-.32.326-.51.449 0 .004-.002.004-.002.004h-.005l-.002.005h-.002a1.51 1.51 0 01-.112.07h-.002c-.002 0-.002 0-.005.005h-.004a2.586 2.586 0 01-1.327.366zm26.109-103.602l-21.289 91.77 71.688-79.064-50.399-12.706zm-56.776-19.712l52.884 13.332 5.476-23.607-58.36 10.275z" fill="#ff4a4a" data-uid="o_elhnn3f2b_10"/><path d="M68.507 333.717c-.33 0-.653-.062-.953-.178a2.74 2.74 0 01-.649-.368 2.666 2.666 0 01-.803-1.04 2.637 2.637 0 01-.114-.326L48.202 270.6a2.616 2.616 0 01.997-2.863l116.532-82.81a2.618 2.618 0 013.678 3.612L76.725 323.742l65.124-34.815c.378-.2.803-.307 1.233-.307h106.07l-26.97-85.66-49.698-44.001a2.615 2.615 0 01-.223-3.694 2.615 2.615 0 013.692-.225l50.24 44.482c.355.316.619.721.762 1.174l28.26 89.754a2.61 2.61 0 01-.387 2.328 2.61 2.61 0 01-2.11 1.072H143.74L69.79 333.382c-.116.062-.237.12-.362.169-.157.057-.32.102-.482.13a2.384 2.384 0 01-.44.036zm-14.761-62.792l15.73 54.132 87.294-127.342-103.024 73.21z" fill="#ff954a" data-uid="o_elhnn3f2b_11"/><path fill="#ff4a4a" data-type="circle" data-cx="55.538" data-cy="19.677" data-r="4.901" d="M155.08 187.158a11.154 11.154 0 1022.308 0 11.154 11.154 0 10-22.308 0" data-uid="o_elhnn3f2b_12"/><path fill="#ff6b4a" data-type="circle" data-cx="23.472" data-cy="42.596" data-r="4.9" d="M82.252 239.5a11.152 11.152 0 1022.304 0 11.152 11.152 0 10-22.304 0" data-uid="o_elhnn3f2b_13"/><path fill="#ff954a" data-type="circle" data-cx="45.736" data-cy="65.145" data-r="4.901" d="M132.322 291.847a11.154 11.154 0 1022.308 0 11.154 11.154 0 10-22.308 0" data-uid="o_elhnn3f2b_14"/><path fill="#ffab4a" data-type="circle" data-cx="12.968" data-cy="82.662" data-r="4.901" d="M57.218 330.536a11.154 11.154 0 1022.309 0 11.154 11.154 0 10-22.309 0" data-uid="o_elhnn3f2b_15"/><path fill="#ffab4a" data-type="circle" data-cx="81.493" data-cy="25.552" data-r="4.901" d="M213.63400000000001 200.813a11.154 11.154 0 1022.309 0 11.154 11.154 0 10-22.309 0" data-uid="o_elhnn3f2b_16"/><path fill="#ff6b4a" data-type="circle" data-cx="47.69" data-cy="89.1" data-r="4.9" d="M136.87300000000002 346.465a11.152 11.152 0 1022.304 0 11.152 11.152 0 10-22.304 0" data-uid="o_elhnn3f2b_17"/></g><path font-size="100" letter-spacing="0" font-family="Bungee" data-uid="o_elhnn3f2b_18" d="M190.19 296.102H161.67q-1.168 0-1.69-.522-.522-.523-.522-1.69v-39.828q0-1.167.522-1.69.522-.522 1.69-.522h28.518q1.168 0 1.69.522.523.523.523 1.69v7.191q0 1.168-.523 1.69-.522.523-1.69.523h-16.963v4.732h11.985q1.168 0 1.69.523.523.522.523 1.69v6.576q0 1.168-.523 1.69-.522.523-1.69.523h-11.985v5.286h16.963q1.168 0 1.69.522.523.523.523 1.69v7.191q0 1.168-.523 1.69-.522.523-1.69.523zm22.679-8.297v6.084q0 1.168-.523 1.69-.522.523-1.69.523h-9.342q-1.168 0-1.69-.522-.523-.523-.523-1.69v-6.577q0-2.827.492-4.24.492-1.414 1.844-3.32l4.978-6.699-4.978-6.7q-1.414-1.905-1.875-3.318-.46-1.414-.46-4.241v-4.733q0-1.167.522-1.69.522-.522 1.69-.522h9.465q1.168 0 1.69.522.522.523.522 1.69v4.241q0 .615.062 1.29.061.677.492 1.292l2.704 3.872q.307.491.645.768t.83.277h.738q.491 0 .799-.277.307-.277.676-.768l2.765-3.872q.43-.615.492-1.291.062-.676.062-1.29v-4.242q0-1.167.522-1.69.522-.522 1.69-.522h9.342q1.168 0 1.69.522.523.523.523 1.69v4.733q0 2.827-.492 4.24-.491 1.414-1.844 3.32l-4.978 6.76 4.978 6.638q1.414 1.906 1.875 3.32.46 1.413.46 4.24v6.576q0 1.168-.522 1.69-.522.523-1.69.523h-9.342q-1.168 0-1.69-.522-.522-.523-.522-1.69v-6.085q0-.615-.062-1.291-.061-.676-.492-1.29l-2.704-3.873q-.369-.553-.676-.799-.307-.246-.799-.246h-.86q-.492 0-.8.246-.307.246-.676.8l-2.765 3.871q-.43.615-.492 1.291-.061.676-.061 1.29zm43.822 8.297h-9.527q-1.168 0-1.69-.522-.523-.523-.523-1.69v-39.828q0-1.167.523-1.69.522-.522 1.69-.522h18.807q8.359 0 11.432 3.319 3.073 3.319 3.073 8.666v7.867q0 5.347-3.073 8.666t-11.432 3.319h-7.068v10.202q0 1.168-.522 1.69-.523.523-1.69.523zm7.62-32.759h-5.53v9.28h5.53q1.783 0 2.336-.921.553-.922.553-2.09v-3.257q0-1.168-.553-2.09-.553-.922-2.335-.922zm60.049.184v20.959q0 2.827-.83 5.132-.83 2.305-2.95 3.933-2.12 1.63-5.84 2.551-3.718.922-9.433.922-5.716 0-9.465-.922-3.75-.922-5.87-2.55-2.12-1.63-2.95-3.934-.83-2.305-.83-5.132v-20.959q0-2.827.83-5.132.83-2.304 2.95-3.964 2.12-1.66 5.87-2.581 3.749-.922 9.465-.922 5.715 0 9.434.922 3.718.922 5.839 2.581 2.12 1.66 2.95 3.964.83 2.305.83 5.132zm-24.216 2.213v16.533q0 1.23.922 2.06.922.829 4.24.829 3.32 0 4.241-.83.922-.83.922-2.059V265.74q0-1.168-.922-1.997-.922-.83-4.24-.83-3.32 0-4.241.83-.922.83-.922 1.997zm65.518 30.362h-31.284q-1.168 0-1.69-.522-.523-.523-.523-1.69v-39.828q0-1.167.523-1.69.522-.522 1.69-.522h9.526q1.168 0 1.69.522.523.523.523 1.69v30.424h8.42v-9.957q0-1.168.523-1.69.522-.523 1.69-.523h8.912q1.167 0 1.69.523.522.522.522 1.69v19.36q0 1.168-.522 1.69-.523.523-1.69.523zm42.715 0h-31.283q-1.168 0-1.69-.522-.523-.523-.523-1.69v-39.828q0-1.167.522-1.69.523-.522 1.69-.522h9.527q1.168 0 1.69.522.523.523.523 1.69v30.424h8.42v-9.957q0-1.168.522-1.69.523-.523 1.69-.523h8.912q1.168 0 1.69.523.523.522.523 1.69v19.36q0 1.168-.522 1.69-.523.523-1.69.523z"/></svg>