<svg version="1.1" id="Layer_1" xmlns="http://www.w3.org/2000/svg" xmlns:xlink="http://www.w3.org/1999/xlink" x="0px" y="0px"
	 width="100%" viewBox="0 0 1024 1024" enable-background="new 0 0 1024 1024" xml:space="preserve">
<path fill="#303D4E" opacity="1.000000" stroke="none" 
	d="
M472.000000,1025.000000 
	C314.666656,1025.000000 157.833328,1025.000000 1.000000,1025.000000 
	C1.000000,683.666687 1.000000,342.333344 1.000000,1.000000 
	C342.333344,1.000000 683.666687,1.000000 1025.000000,1.000000 
	C1025.000000,342.333344 1025.000000,683.666687 1025.000000,1025.000000 
	C840.833313,1025.000000 656.666687,1025.000000 472.000000,1025.000000 
M463.499969,779.919250 
	C514.373840,779.919250 565.247742,779.919250 616.826782,779.919250 
	C615.718750,777.688965 614.979248,776.415405 614.431458,775.064209 
	C609.500305,762.901489 604.255249,750.847961 599.884705,738.485779 
	C598.361572,734.177490 596.637695,733.087463 592.295837,733.093872 
	C500.298340,733.228943 408.300598,733.196960 316.302917,733.192139 
	C313.303467,733.192017 310.300079,733.222473 307.305237,733.088196 
	C286.293457,732.146729 274.046295,720.723938 271.739166,699.873230 
	C271.391876,696.734558 271.229950,693.559204 271.229034,690.400757 
	C271.202484,600.903015 271.197571,511.405243 271.240631,421.907532 
	C271.242523,417.920654 271.505157,413.904602 272.026886,409.952423 
	C274.234009,393.233337 284.782196,382.407379 301.407684,379.902313 
	C305.668518,379.260315 310.030884,379.052063 314.346741,379.050659 
	C446.843414,379.007843 579.340088,379.015045 711.836731,379.020538 
	C714.336060,379.020660 716.841919,378.989136 719.333618,379.147797 
	C739.603149,380.438263 751.658630,391.153900 754.639038,410.688873 
	C755.163635,414.127411 755.172058,417.666046 755.178040,421.158875 
	C755.221252,446.158173 755.202148,471.157593 755.202881,496.156952 
	C755.202942,497.926819 755.202881,499.696655 755.202881,501.039948 
	C771.105347,501.039948 786.320801,501.039948 801.925415,501.039948 
	C801.925415,499.850281 801.925537,498.544189 801.925415,497.238098 
	C801.919128,442.906158 801.988586,388.573944 801.818481,334.242523 
	C801.795105,326.779633 801.019592,319.250580 799.843018,311.871643 
	C794.481323,278.246368 774.579285,256.878906 741.250854,249.906357 
	C730.745300,247.708496 719.777527,246.874771 709.019165,246.858307 
	C578.522766,246.658615 448.025848,246.680893 317.529327,246.826584 
	C307.910583,246.837311 298.173096,247.530212 288.697235,249.129242 
	C255.439423,254.741379 234.672943,274.502991 227.708298,307.516937 
	C225.629089,317.372772 224.854263,327.671265 224.837769,337.769196 
	C224.646652,454.765900 224.664246,571.763123 224.814896,688.760010 
	C224.826843,698.044128 225.468826,707.467834 227.140778,716.584045 
	C232.977142,748.406799 251.419113,769.063660 283.339050,776.155518 
	C294.139343,778.555054 305.427277,779.668579 316.504852,779.754517 
	C365.167358,780.132141 413.834503,779.918518 463.499969,779.919250 
M802.754089,832.286804 
	C878.057312,820.765320 933.798889,747.719849 925.267395,671.741760 
	C917.196411,599.864868 858.054443,543.750977 786.630127,540.202820 
	C696.407654,535.720825 623.157288,613.446533 632.823364,703.406433 
	C641.733765,786.332886 719.570251,845.745300 802.754089,832.286804 
M466.482422,629.201294 
	C461.669647,629.324829 456.820618,629.123535 452.053345,629.655212 
	C446.269928,630.300232 443.584625,632.912903 443.300995,638.695496 
	C442.902649,646.815857 442.895966,654.986389 443.311676,663.105286 
	C443.609314,668.918335 446.323242,671.911560 451.982117,672.213013 
	C460.909973,672.688599 469.893463,672.536194 478.834717,672.180176 
	C483.840576,671.980774 486.793060,668.574951 486.967773,663.673340 
	C487.269318,655.212891 487.253632,646.728882 487.002563,638.265686 
	C486.855652,633.313782 483.909393,630.243469 478.898193,629.727722 
	C475.110168,629.337830 471.279602,629.361572 466.482422,629.201294 
M563.469666,629.199402 
	C558.161377,629.377625 552.835693,629.349609 547.550171,629.796631 
	C542.986633,630.182678 540.070923,633.033386 539.925720,637.594666 
	C539.645813,646.384338 539.642700,655.194580 539.904785,663.985046 
	C540.046204,668.728760 542.963013,671.978577 547.742798,672.153931 
	C556.851929,672.488037 565.990540,672.489807 575.099731,672.157532 
	C579.857666,671.983948 582.864258,668.743347 583.030457,664.034607 
	C583.340637,655.243164 583.329346,646.425354 583.025146,637.633301 
	C582.868652,633.111206 579.928223,630.318420 575.381775,629.796265 
	C571.763672,629.380737 568.097595,629.382690 563.469666,629.199402 
M583.473694,466.325287 
	C583.398926,460.674652 583.565063,455.007782 583.184753,449.377777 
	C582.767151,443.195404 579.882324,440.176727 573.751892,439.914948 
	C565.623230,439.567932 557.459595,439.572632 549.329041,439.889648 
	C543.072388,440.133575 540.160156,442.918365 539.806580,449.193115 
	C539.367798,456.979218 539.328125,464.817688 539.670776,472.609161 
	C539.992249,479.918793 543.010742,482.665131 550.405151,482.897797 
	C557.713440,483.127716 565.039795,483.125366 572.348694,482.906921 
	C579.910583,482.680908 582.819153,479.699646 583.352478,472.253571 
	C583.471130,470.597626 583.436523,468.930725 583.473694,466.325287 
M580.286682,537.159729 
	C578.794678,536.461914 577.313049,535.187134 575.808899,535.159912 
	C566.167419,534.985474 556.508179,534.798523 546.881836,535.224731 
	C542.580322,535.415222 539.998779,538.744202 539.887085,543.068115 
	C539.663757,551.712769 539.620300,560.372253 539.869263,569.015076 
	C540.015198,574.081726 543.195007,577.113953 548.191833,577.268616 
	C556.996704,577.541016 565.835449,577.707520 574.622192,577.226868 
	C580.402771,576.910645 582.931152,573.999390 583.175842,568.096130 
	C583.506409,560.117615 583.424255,552.109131 583.144165,544.126709 
	C583.068176,541.960022 581.641907,539.840698 580.286682,537.159729 
M643.063354,440.159180 
	C638.146606,441.453949 635.960327,444.928101 635.878479,449.726959 
	C635.744995,457.545776 635.614563,465.377594 635.919617,473.186829 
	C636.161377,479.374542 639.079346,482.466675 645.251099,482.752502 
	C653.554016,483.137024 661.899414,483.120544 670.204773,482.766083 
	C676.195496,482.510406 679.009888,479.762390 679.333496,473.622864 
	C679.761780,465.498596 679.783630,457.314728 679.322510,449.193787 
	C678.950378,442.639893 676.004150,440.009399 669.322754,439.829865 
	C660.848083,439.602203 652.358643,439.925110 643.063354,440.159180 
M354.619263,629.822754 
	C348.955200,630.872314 347.103058,634.905029 346.996307,639.998047 
	C346.846283,647.155151 346.798828,654.321960 346.994263,661.476807 
	C347.193359,668.765015 349.988770,672.042786 357.177551,672.476440 
	C364.971344,672.946655 372.832123,672.934265 380.630493,672.514893 
	C387.674103,672.136108 390.509735,669.078796 390.785400,662.048584 
	C391.078827,654.567627 391.076599,647.056885 390.775787,639.576355 
	C390.502899,632.790344 387.712128,629.753723 380.876862,629.467346 
	C372.415192,629.112854 363.920074,629.556946 354.619263,629.822754 
M474.178040,577.759399 
	C484.982239,577.001465 487.206512,574.698608 487.296722,563.978455 
	C487.347137,557.989685 487.420166,551.995483 487.229279,546.011780 
	C486.974854,538.038330 484.250214,535.072754 476.385773,534.748779 
	C468.914154,534.440918 461.409546,534.443481 453.938110,534.756042 
	C446.177582,535.080688 443.304474,538.197632 443.084839,546.076111 
	C442.899445,552.725830 442.907318,559.388245 443.075897,566.038818 
	C443.279816,574.084656 446.181793,577.177124 454.285675,577.617676 
	C460.590118,577.960266 466.925354,577.737549 474.178040,577.759399 
M390.933807,556.494141 
	C390.878845,552.334290 391.081604,548.151062 390.707977,544.020020 
	C390.158966,537.950500 387.539703,535.139648 381.520508,534.896851 
	C373.052582,534.555176 364.546936,534.568420 356.081177,534.952698 
	C350.375427,535.211792 347.422394,538.159546 347.166351,543.798157 
	C346.796844,551.935242 346.807404,560.111511 347.141785,568.251099 
	C347.376038,573.953979 350.111816,576.948242 355.881958,577.251282 
	C364.663177,577.712524 373.492126,577.533813 382.291138,577.284363 
	C387.383301,577.140076 390.136658,573.849731 390.616058,568.951965 
	C390.987732,565.155151 390.846863,561.308167 390.933807,556.494141 
M466.489197,483.007477 
	C470.143585,482.962067 473.815674,483.128418 477.448456,482.824707 
	C483.876129,482.287384 486.852875,479.430054 487.093964,473.011627 
	C487.386688,465.216370 487.389923,457.391174 487.065643,449.597778 
	C486.800232,443.220184 483.751343,440.159729 477.349701,439.889343 
	C469.391022,439.553131 461.399536,439.553467 453.438538,439.848419 
	C446.735443,440.096802 443.576996,443.077820 443.246033,449.696136 
	C442.856628,457.483826 442.870728,465.318817 443.235687,473.108673 
	C443.534515,479.487030 446.636047,482.349121 453.041656,482.831818 
	C457.174408,483.143250 461.343964,482.965820 466.489197,483.007477 
z"/>
<path fill="#DDDDDD" opacity="1.000000" stroke="none" 
	d="
M462.999939,779.919250 
	C413.834503,779.918518 365.167358,780.132141 316.504852,779.754517 
	C305.427277,779.668579 294.139343,778.555054 283.339050,776.155518 
	C251.419113,769.063660 232.977142,748.406799 227.140778,716.584045 
	C225.468826,707.467834 224.826843,698.044128 224.814896,688.760010 
	C224.664246,571.763123 224.646652,454.765900 224.837769,337.769196 
	C224.854263,327.671265 225.629089,317.372772 227.708298,307.516937 
	C234.672943,274.502991 255.439423,254.741379 288.697235,249.129242 
	C298.173096,247.530212 307.910583,246.837311 317.529327,246.826584 
	C448.025848,246.680893 578.522766,246.658615 709.019165,246.858307 
	C719.777527,246.874771 730.745300,247.708496 741.250854,249.906357 
	C774.579285,256.878906 794.481323,278.246368 799.843018,311.871643 
	C801.019592,319.250580 801.795105,326.779633 801.818481,334.242523 
	C801.988586,388.573944 801.919128,442.906158 801.925415,497.238098 
	C801.925537,498.544189 801.925415,499.850281 801.925415,501.039948 
	C786.320801,501.039948 771.105347,501.039948 755.202881,501.039948 
	C755.202881,499.696655 755.202942,497.926819 755.202881,496.156952 
	C755.202148,471.157593 755.221252,446.158173 755.178040,421.158875 
	C755.172058,417.666046 755.163635,414.127411 754.639038,410.688873 
	C751.658630,391.153900 739.603149,380.438263 719.333618,379.147797 
	C716.841919,378.989136 714.336060,379.020660 711.836731,379.020538 
	C579.340088,379.015045 446.843414,379.007843 314.346741,379.050659 
	C310.030884,379.052063 305.668518,379.260315 301.407684,379.902313 
	C284.782196,382.407379 274.234009,393.233337 272.026886,409.952423 
	C271.505157,413.904602 271.242523,417.920654 271.240631,421.907532 
	C271.197571,511.405243 271.202484,600.903015 271.229034,690.400757 
	C271.229950,693.559204 271.391876,696.734558 271.739166,699.873230 
	C274.046295,720.723938 286.293457,732.146729 307.305237,733.088196 
	C310.300079,733.222473 313.303467,733.192017 316.302917,733.192139 
	C408.300598,733.196960 500.298340,733.228943 592.295837,733.093872 
	C596.637695,733.087463 598.361572,734.177490 599.884705,738.485779 
	C604.255249,750.847961 609.500305,762.901489 614.431458,775.064209 
	C614.979248,776.415405 615.718750,777.688965 616.826782,779.919250 
	C565.247742,779.919250 514.373840,779.919250 462.999939,779.919250 
z"/>
<path fill="#DDDDDD" opacity="1.000000" stroke="none" 
	d="
M802.329346,832.376282 
	C719.570251,845.745300 641.733765,786.332886 632.823364,703.406433 
	C623.157288,613.446533 696.407654,535.720825 786.630127,540.202820 
	C858.054443,543.750977 917.196411,599.864868 925.267395,671.741760 
	C933.798889,747.719849 878.057312,820.765320 802.329346,832.376282 
M765.498840,709.859192 
	C770.495178,709.853577 775.496521,709.990417 780.486755,709.812622 
	C790.933044,709.440552 798.224121,702.454773 798.282593,692.111267 
	C798.453979,661.801147 798.414673,631.489075 798.290161,601.178467 
	C798.259521,593.712769 793.619751,587.714355 786.769348,585.203674 
	C774.643616,580.759644 762.621704,589.326843 762.523621,602.783264 
	C762.365906,624.433044 762.477966,646.084839 762.476013,667.735779 
	C762.475891,669.687134 762.476013,671.638550 762.476013,674.118286 
	C760.158264,674.118286 758.371094,674.118042 756.583862,674.118347 
	C741.428162,674.121033 726.272156,674.060181 711.116943,674.151489 
	C702.680969,674.202271 695.811218,678.891479 693.161560,686.082886 
	C688.872803,697.723389 697.726929,709.676392 711.038513,709.809509 
	C728.857117,709.987671 746.678894,709.857178 765.498840,709.859192 
z"/>
<path fill="#DBDBDB" opacity="1.000000" stroke="none" 
	d="
M466.975189,629.201294 
	C471.279602,629.361572 475.110168,629.337830 478.898193,629.727722 
	C483.909393,630.243469 486.855652,633.313782 487.002563,638.265686 
	C487.253632,646.728882 487.269318,655.212891 486.967773,663.673340 
	C486.793060,668.574951 483.840576,671.980774 478.834717,672.180176 
	C469.893463,672.536194 460.909973,672.688599 451.982117,672.213013 
	C446.323242,671.911560 443.609314,668.918335 443.311676,663.105286 
	C442.895966,654.986389 442.902649,646.815857 443.300995,638.695496 
	C443.584625,632.912903 446.269928,630.300232 452.053345,629.655212 
	C456.820618,629.123535 461.669647,629.324829 466.975189,629.201294 
z"/>
<path fill="#DADBDB" opacity="1.000000" stroke="none" 
	d="
M563.961243,629.199341 
	C568.097595,629.382690 571.763672,629.380737 575.381775,629.796265 
	C579.928223,630.318420 582.868652,633.111206 583.025146,637.633301 
	C583.329346,646.425354 583.340637,655.243164 583.030457,664.034607 
	C582.864258,668.743347 579.857666,671.983948 575.099731,672.157532 
	C565.990540,672.489807 556.851929,672.488037 547.742798,672.153931 
	C542.963013,671.978577 540.046204,668.728760 539.904785,663.985046 
	C539.642700,655.194580 539.645813,646.384338 539.925720,637.594666 
	C540.070923,633.033386 542.986633,630.182678 547.550171,629.796631 
	C552.835693,629.349609 558.161377,629.377625 563.961243,629.199341 
z"/>
<path fill="#DCDCDC" opacity="1.000000" stroke="none" 
	d="
M583.473145,466.797058 
	C583.436523,468.930725 583.471130,470.597626 583.352478,472.253571 
	C582.819153,479.699646 579.910583,482.680908 572.348694,482.906921 
	C565.039795,483.125366 557.713440,483.127716 550.405151,482.897797 
	C543.010742,482.665131 539.992249,479.918793 539.670776,472.609161 
	C539.328125,464.817688 539.367798,456.979218 539.806580,449.193115 
	C540.160156,442.918365 543.072388,440.133575 549.329041,439.889648 
	C557.459595,439.572632 565.623230,439.567932 573.751892,439.914948 
	C579.882324,440.176727 582.767151,443.195404 583.184753,449.377777 
	C583.565063,455.007782 583.398926,460.674652 583.473145,466.797058 
z"/>
<path fill="#DBDBDB" opacity="1.000000" stroke="none" 
	d="
M580.560974,537.429688 
	C581.641907,539.840698 583.068176,541.960022 583.144165,544.126709 
	C583.424255,552.109131 583.506409,560.117615 583.175842,568.096130 
	C582.931152,573.999390 580.402771,576.910645 574.622192,577.226868 
	C565.835449,577.707520 556.996704,577.541016 548.191833,577.268616 
	C543.195007,577.113953 540.015198,574.081726 539.869263,569.015076 
	C539.620300,560.372253 539.663757,551.712769 539.887085,543.068115 
	C539.998779,538.744202 542.580322,535.415222 546.881836,535.224731 
	C556.508179,534.798523 566.167419,534.985474 575.808899,535.159912 
	C577.313049,535.187134 578.794678,536.461914 580.560974,537.429688 
z"/>
<path fill="#DCDCDC" opacity="1.000000" stroke="none" 
	d="
M643.469482,440.084869 
	C652.358643,439.925110 660.848083,439.602203 669.322754,439.829865 
	C676.004150,440.009399 678.950378,442.639893 679.322510,449.193787 
	C679.783630,457.314728 679.761780,465.498596 679.333496,473.622864 
	C679.009888,479.762390 676.195496,482.510406 670.204773,482.766083 
	C661.899414,483.120544 653.554016,483.137024 645.251099,482.752502 
	C639.079346,482.466675 636.161377,479.374542 635.919617,473.186829 
	C635.614563,465.377594 635.744995,457.545776 635.878479,449.726959 
	C635.960327,444.928101 638.146606,441.453949 643.469482,440.084869 
z"/>
<path fill="#DBDBDB" opacity="1.000000" stroke="none" 
	d="
M355.029327,629.739380 
	C363.920074,629.556946 372.415192,629.112854 380.876862,629.467346 
	C387.712128,629.753723 390.502899,632.790344 390.775787,639.576355 
	C391.076599,647.056885 391.078827,654.567627 390.785400,662.048584 
	C390.509735,669.078796 387.674103,672.136108 380.630493,672.514893 
	C372.832123,672.934265 364.971344,672.946655 357.177551,672.476440 
	C349.988770,672.042786 347.193359,668.765015 346.994263,661.476807 
	C346.798828,654.321960 346.846283,647.155151 346.996307,639.998047 
	C347.103058,634.905029 348.955200,630.872314 355.029327,629.739380 
z"/>
<path fill="#DCDCDC" opacity="1.000000" stroke="none" 
	d="
M473.712463,577.762756 
	C466.925354,577.737549 460.590118,577.960266 454.285675,577.617676 
	C446.181793,577.177124 443.279816,574.084656 443.075897,566.038818 
	C442.907318,559.388245 442.899445,552.725830 443.084839,546.076111 
	C443.304474,538.197632 446.177582,535.080688 453.938110,534.756042 
	C461.409546,534.443481 468.914154,534.440918 476.385773,534.748779 
	C484.250214,535.072754 486.974854,538.038330 487.229279,546.011780 
	C487.420166,551.995483 487.347137,557.989685 487.296722,563.978455 
	C487.206512,574.698608 484.982239,577.001465 473.712463,577.762756 
z"/>
<path fill="#DBDBDC" opacity="1.000000" stroke="none" 
	d="
M390.933838,556.988831 
	C390.846863,561.308167 390.987732,565.155151 390.616058,568.951965 
	C390.136658,573.849731 387.383301,577.140076 382.291138,577.284363 
	C373.492126,577.533813 364.663177,577.712524 355.881958,577.251282 
	C350.111816,576.948242 347.376038,573.953979 347.141785,568.251099 
	C346.807404,560.111511 346.796844,551.935242 347.166351,543.798157 
	C347.422394,538.159546 350.375427,535.211792 356.081177,534.952698 
	C364.546936,534.568420 373.052582,534.555176 381.520508,534.896851 
	C387.539703,535.139648 390.158966,537.950500 390.707977,544.020020 
	C391.081604,548.151062 390.878845,552.334290 390.933838,556.988831 
z"/>
<path fill="#DCDCDC" opacity="1.000000" stroke="none" 
	d="
M465.993103,483.007477 
	C461.343964,482.965820 457.174408,483.143250 453.041656,482.831818 
	C446.636047,482.349121 443.534515,479.487030 443.235687,473.108673 
	C442.870728,465.318817 442.856628,457.483826 443.246033,449.696136 
	C443.576996,443.077820 446.735443,440.096802 453.438538,439.848419 
	C461.399536,439.553467 469.391022,439.553131 477.349701,439.889343 
	C483.751343,440.159729 486.800232,443.220184 487.065643,449.597778 
	C487.389923,457.391174 487.386688,465.216370 487.093964,473.011627 
	C486.852875,479.430054 483.876129,482.287384 477.448456,482.824707 
	C473.815674,483.128418 470.143585,482.962067 465.993103,483.007477 
z"/>
<path fill="#323F50" opacity="1.000000" stroke="none" 
	d="
M764.999023,709.859192 
	C746.678894,709.857178 728.857117,709.987671 711.038513,709.809509 
	C697.726929,709.676392 688.872803,697.723389 693.161560,686.082886 
	C695.811218,678.891479 702.680969,674.202271 711.116943,674.151489 
	C726.272156,674.060181 741.428162,674.121033 756.583862,674.118347 
	C758.371094,674.118042 760.158264,674.118286 762.476013,674.118286 
	C762.476013,671.638550 762.475891,669.687134 762.476013,667.735779 
	C762.477966,646.084839 762.365906,624.433044 762.523621,602.783264 
	C762.621704,589.326843 774.643616,580.759644 786.769348,585.203674 
	C793.619751,587.714355 798.259521,593.712769 798.290161,601.178467 
	C798.414673,631.489075 798.453979,661.801147 798.282593,692.111267 
	C798.224121,702.454773 790.933044,709.440552 780.486755,709.812622 
	C775.496521,709.990417 770.495178,709.853577 764.999023,709.859192 
z"/>
</svg>